<svg class="animated" id="freepik_stories-houses" xmlns="http://www.w3.org/2000/svg" viewBox="0 0 500 500" version="1.1" xmlns:xlink="http://www.w3.org/1999/xlink" xmlns:svgjs="http://svgjs.com/svgjs"><style>svg#freepik_stories-houses:not(.animated) .animable {opacity: 0;}svg#freepik_stories-houses.animated #freepik--background-simple--inject-2 {animation: 1s 1 forwards cubic-bezier(.36,-0.01,.5,1.38) slideDown;animation-delay: 0s;}svg#freepik_stories-houses.animated #freepik--Trees--inject-2 {animation: 1s 1 forwards cubic-bezier(.36,-0.01,.5,1.38) slideDown;animation-delay: 0s;}svg#freepik_stories-houses.animated #freepik--Clouds--inject-2 {animation: 1s 1 forwards cubic-bezier(.36,-0.01,.5,1.38) slideDown;animation-delay: 0s;}            @keyframes slideDown {                0% {                    opacity: 0;                    transform: translateY(-30px);                }                100% {                    opacity: 1;                    transform: translateY(0);                }            }        .animator-hidden { display: none; }</style><g id="freepik--background-simple--inject-2" class="animable" style="transform-origin: 246.724px 249.068px;"><path d="M453.07,388.14c.38-32.27-28.22-52.84-27.45-77.36.79-25.16,25.36-48.46,11.89-113.7S358.25,99.21,298,113.19s-46.76,51.27-103.82,50.33S92,162.59,57.89,241.81c-31.77,73.85-11.2,138-8.26,146.33Z" style="fill: rgb(64, 89, 173); transform-origin: 246.724px 249.068px;" id="elxcngl2f9swe" class="animable"></path><g id="ely2cdbx1t9u"><path d="M453.07,388.14c.38-32.27-28.22-52.84-27.45-77.36.79-25.16,25.36-48.46,11.89-113.7S358.25,99.21,298,113.19s-46.76,51.27-103.82,50.33S92,162.59,57.89,241.81c-31.77,73.85-11.2,138-8.26,146.33Z" style="fill: rgb(255, 255, 255); opacity: 0.7; transform-origin: 246.724px 249.068px;" class="animable"></path></g></g><g id="freepik--Mountains--inject-2" class="animable" style="transform-origin: 246.175px 256.72px;"><polygon points="446 387.44 318.7 126 271 212.56 210.09 172.7 157.24 230.2 132.13 205.97 61.45 366.03 46.35 387.44 446 387.44" style="fill: rgb(64, 89, 173); transform-origin: 246.175px 256.72px;" id="elp9tyv28z2m" class="animable"></polygon><g id="el7366okfmu2"><polygon points="446 387.44 318.7 126 271 212.56 210.09 172.7 157.24 230.2 132.13 205.97 61.45 366.03 46.35 387.44 446 387.44" style="fill: rgb(255, 255, 255); opacity: 0.5; transform-origin: 246.175px 256.72px;" class="animable"></polygon></g><line x1="312.83" y1="242.67" x2="315.91" y2="245.03" style="fill: none; stroke: rgb(255, 255, 255); stroke-linecap: round; stroke-linejoin: round; transform-origin: 314.37px 243.85px;" id="eljx4afydq159" class="animable"></line><line x1="274.95" y1="213.74" x2="308.5" y2="239.36" style="fill: none; stroke: rgb(255, 255, 255); stroke-linecap: round; stroke-linejoin: round; transform-origin: 291.725px 226.55px;" id="elfrvj1j8wnns" class="animable"></line><line x1="152.64" y1="237.63" x2="129.32" y2="263.23" style="fill: none; stroke: rgb(255, 255, 255); stroke-linecap: round; stroke-linejoin: round; transform-origin: 140.98px 250.43px;" id="elx7s34b5fbm" class="animable"></line><polygon points="328.79 185.52 328.79 158.47 332.09 159.79 332.36 154.05 318.7 126 301.42 157.37 310.98 149.24 312.96 158.47 318.24 154.52 328.79 185.52" style="fill: rgb(255, 255, 255); transform-origin: 316.89px 155.76px;" id="el91u89ekd1y9" class="animable"></polygon><polygon points="226.48 194.21 228.38 184.67 210.09 172.7 195.97 188.07 206.5 183.97 213.16 194.21 213.67 186.53 226.48 194.21" style="fill: rgb(255, 255, 255); transform-origin: 212.175px 183.455px;" id="ela3eidpctjav" class="animable"></polygon></g><g id="freepik--house-2--inject-2" class="animable" style="transform-origin: 341.006px 319.611px;"><rect x="259.95" y="271.67" width="167.37" height="115.33" style="fill: rgb(64, 89, 173); stroke: rgb(38, 50, 56); stroke-linecap: round; stroke-linejoin: round; transform-origin: 343.635px 329.335px;" id="el2kgnz0pg019" class="animable"></rect><rect x="338.47" y="331" width="23.35" height="56" style="fill: rgb(255, 255, 255); stroke: rgb(38, 50, 56); stroke-linecap: round; stroke-linejoin: round; transform-origin: 350.145px 359px;" id="el1xync2bons3" class="animable"></rect><rect x="340.97" y="335" width="18.35" height="52" style="fill: rgb(38, 50, 56); stroke: rgb(38, 50, 56); stroke-linecap: round; stroke-linejoin: round; transform-origin: 350.145px 361px;" id="el8wpe7jxgynx" class="animable"></rect><rect x="370.99" y="323.43" width="4.96" height="63.57" style="fill: rgb(255, 255, 255); stroke: rgb(38, 50, 56); stroke-linecap: round; stroke-linejoin: round; transform-origin: 373.47px 355.215px;" id="elkiljyi41bos" class="animable"></rect><rect x="370.12" y="364.68" width="6.7" height="22.32" style="fill: rgb(255, 255, 255); stroke: rgb(38, 50, 56); stroke-linecap: round; stroke-linejoin: round; transform-origin: 373.47px 375.84px;" id="elxzpl7gcwpfo" class="animable"></rect><path d="M432.44,273.16H276.92a.26.26,0,0,1-.1-.5l43.43-18.81a6.24,6.24,0,0,1,2.49-.52h59.94a6.18,6.18,0,0,1,2.32.45l47.54,18.87A.26.26,0,0,1,432.44,273.16Z" style="fill: rgb(38, 50, 56); stroke: rgb(38, 50, 56); stroke-linecap: round; stroke-linejoin: round; transform-origin: 354.701px 263.247px;" id="el0m23pz5qro1g" class="animable"></path><polygon points="381.65 328.33 292.32 328.33 299 309 369.82 309 381.65 328.33" style="fill: rgb(38, 50, 56); stroke: rgb(38, 50, 56); stroke-linecap: round; stroke-linejoin: round; transform-origin: 336.985px 318.665px;" id="elqy4e42b0n8" class="animable"></polygon><rect x="254.06" y="271.67" width="76.51" height="115.33" style="fill: rgb(255, 255, 255); stroke: rgb(38, 50, 56); stroke-linecap: round; stroke-linejoin: round; transform-origin: 292.315px 329.335px;" id="eln222jci37br" class="animable"></rect><rect x="254.06" y="367" width="76.51" height="20" style="fill: rgb(64, 89, 173); stroke: rgb(38, 50, 56); stroke-linecap: round; stroke-linejoin: round; transform-origin: 292.315px 377px;" id="el4uvg2efc5eq" class="animable"></rect><path d="M291.2,252.47l-41.77,19a.26.26,0,0,0,.11.5H335.1a.26.26,0,0,0,.11-.5l-41.77-19A2.66,2.66,0,0,0,291.2,252.47Z" style="fill: rgb(38, 50, 56); stroke: rgb(38, 50, 56); stroke-linecap: round; stroke-linejoin: round; transform-origin: 292.32px 262.096px;" id="elwg54sdkeqp" class="animable"></path><circle cx="350.14" cy="343.5" r="2" style="fill: rgb(255, 255, 255); transform-origin: 350.14px 343.5px;" id="elioyqjj7u3i" class="animable"></circle><rect x="385.32" y="336" width="37" height="31" style="fill: rgb(255, 255, 255); stroke: rgb(38, 50, 56); stroke-linecap: round; stroke-linejoin: round; transform-origin: 403.82px 351.5px;" id="elysrfwxh182a" class="animable"></rect><rect x="399.32" y="338.82" width="9" height="6.68" style="fill: rgb(38, 50, 56); stroke: rgb(38, 50, 56); stroke-linecap: round; stroke-linejoin: round; transform-origin: 403.82px 342.16px;" id="elx4rj7t6vnl" class="animable"></rect><rect x="399.32" y="348.5" width="9" height="15.68" style="fill: rgb(38, 50, 56); stroke: rgb(38, 50, 56); stroke-linecap: round; stroke-linejoin: round; transform-origin: 403.82px 356.34px;" id="elkoke9lhjjdb" class="animable"></rect><rect x="388.68" y="338.82" width="8.14" height="6.68" style="fill: rgb(38, 50, 56); stroke: rgb(38, 50, 56); stroke-linecap: round; stroke-linejoin: round; transform-origin: 392.75px 342.16px;" id="el2awdnpan5us" class="animable"></rect><rect x="410.82" y="338.82" width="8.14" height="6.68" style="fill: rgb(38, 50, 56); stroke: rgb(38, 50, 56); stroke-linecap: round; stroke-linejoin: round; transform-origin: 414.89px 342.16px;" id="elxb3ng4f7eo" class="animable"></rect><rect x="410.82" y="348.5" width="8.14" height="15.68" style="fill: rgb(38, 50, 56); stroke: rgb(38, 50, 56); stroke-linecap: round; stroke-linejoin: round; transform-origin: 414.89px 356.34px;" id="el1upuify0p7e" class="animable"></rect><rect x="388.68" y="348.5" width="8.14" height="15.68" style="fill: rgb(38, 50, 56); stroke: rgb(38, 50, 56); stroke-linecap: round; stroke-linejoin: round; transform-origin: 392.75px 356.34px;" id="elyaw439tt2o" class="animable"></rect><rect x="268.82" y="336" width="47" height="31" style="fill: rgb(255, 255, 255); stroke: rgb(38, 50, 56); stroke-linecap: round; stroke-linejoin: round; transform-origin: 292.32px 351.5px;" id="elm6m2fkomp4c" class="animable"></rect><rect x="282.82" y="338.82" width="9" height="6.68" style="fill: rgb(38, 50, 56); stroke: rgb(38, 50, 56); stroke-linecap: round; stroke-linejoin: round; transform-origin: 287.32px 342.16px;" id="elrcbsyd6jf38" class="animable"></rect><rect x="282.82" y="348.5" width="9" height="15.68" style="fill: rgb(38, 50, 56); stroke: rgb(38, 50, 56); stroke-linecap: round; stroke-linejoin: round; transform-origin: 287.32px 356.34px;" id="elemp2xil3saa" class="animable"></rect><rect x="272.18" y="338.82" width="8.14" height="6.68" style="fill: rgb(38, 50, 56); stroke: rgb(38, 50, 56); stroke-linecap: round; stroke-linejoin: round; transform-origin: 276.25px 342.16px;" id="el3etuok2gu4n" class="animable"></rect><rect x="294.32" y="338.82" width="8.14" height="6.68" style="fill: rgb(38, 50, 56); stroke: rgb(38, 50, 56); stroke-linecap: round; stroke-linejoin: round; transform-origin: 298.39px 342.16px;" id="el5sdkuzhljtm" class="animable"></rect><rect x="294.32" y="348.5" width="8.14" height="15.68" style="fill: rgb(38, 50, 56); stroke: rgb(38, 50, 56); stroke-linecap: round; stroke-linejoin: round; transform-origin: 298.39px 356.34px;" id="elwkdd98chkdf" class="animable"></rect><rect x="304.82" y="338.82" width="8.14" height="6.68" style="fill: rgb(38, 50, 56); stroke: rgb(38, 50, 56); stroke-linecap: round; stroke-linejoin: round; transform-origin: 308.89px 342.16px;" id="elhp92mxf4wq" class="animable"></rect><rect x="304.82" y="348.5" width="8.14" height="15.68" style="fill: rgb(38, 50, 56); stroke: rgb(38, 50, 56); stroke-linecap: round; stroke-linejoin: round; transform-origin: 308.89px 356.34px;" id="elh6iq1nucj4r" class="animable"></rect><rect x="272.18" y="348.5" width="8.14" height="15.68" style="fill: rgb(38, 50, 56); stroke: rgb(38, 50, 56); stroke-linecap: round; stroke-linejoin: round; transform-origin: 276.25px 356.34px;" id="ele6e6j90ib1o" class="animable"></rect><rect x="268.82" y="276.5" width="47" height="31" style="fill: rgb(255, 255, 255); stroke: rgb(38, 50, 56); stroke-linecap: round; stroke-linejoin: round; transform-origin: 292.32px 292px;" id="elzzqxlvkrqec" class="animable"></rect><rect x="282.82" y="279.32" width="9" height="6.68" style="fill: rgb(38, 50, 56); stroke: rgb(38, 50, 56); stroke-linecap: round; stroke-linejoin: round; transform-origin: 287.32px 282.66px;" id="elp7ubumjbud" class="animable"></rect><rect x="282.82" y="289" width="9" height="15.68" style="fill: rgb(38, 50, 56); stroke: rgb(38, 50, 56); stroke-linecap: round; stroke-linejoin: round; transform-origin: 287.32px 296.84px;" id="eljfqhdmns6n" class="animable"></rect><rect x="272.18" y="279.32" width="8.14" height="6.68" style="fill: rgb(38, 50, 56); stroke: rgb(38, 50, 56); stroke-linecap: round; stroke-linejoin: round; transform-origin: 276.25px 282.66px;" id="el3vmq4ox3dcr" class="animable"></rect><rect x="294.32" y="279.32" width="8.14" height="6.68" style="fill: rgb(38, 50, 56); stroke: rgb(38, 50, 56); stroke-linecap: round; stroke-linejoin: round; transform-origin: 298.39px 282.66px;" id="eldoxjiqmi3jk" class="animable"></rect><rect x="294.32" y="289" width="8.14" height="15.68" style="fill: rgb(38, 50, 56); stroke: rgb(38, 50, 56); stroke-linecap: round; stroke-linejoin: round; transform-origin: 298.39px 296.84px;" id="elm2jx015q8q" class="animable"></rect><rect x="304.82" y="279.32" width="8.14" height="6.68" style="fill: rgb(38, 50, 56); stroke: rgb(38, 50, 56); stroke-linecap: round; stroke-linejoin: round; transform-origin: 308.89px 282.66px;" id="elsxogourruoq" class="animable"></rect><rect x="304.82" y="289" width="8.14" height="15.68" style="fill: rgb(38, 50, 56); stroke: rgb(38, 50, 56); stroke-linecap: round; stroke-linejoin: round; transform-origin: 308.89px 296.84px;" id="el6osq2vrca7e" class="animable"></rect><rect x="272.18" y="289" width="8.14" height="15.68" style="fill: rgb(38, 50, 56); stroke: rgb(38, 50, 56); stroke-linecap: round; stroke-linejoin: round; transform-origin: 276.25px 296.84px;" id="el65q7v3tbi9b" class="animable"></rect><rect x="385.32" y="276.5" width="37" height="31" style="fill: rgb(255, 255, 255); stroke: rgb(38, 50, 56); stroke-linecap: round; stroke-linejoin: round; transform-origin: 403.82px 292px;" id="elawpwwnzpzat" class="animable"></rect><rect x="399.32" y="279.32" width="9" height="6.68" style="fill: rgb(38, 50, 56); stroke: rgb(38, 50, 56); stroke-linecap: round; stroke-linejoin: round; transform-origin: 403.82px 282.66px;" id="el9pt0qyuymxj" class="animable"></rect><rect x="399.32" y="289" width="9" height="15.68" style="fill: rgb(38, 50, 56); stroke: rgb(38, 50, 56); stroke-linecap: round; stroke-linejoin: round; transform-origin: 403.82px 296.84px;" id="els5zoxi6j7bg" class="animable"></rect><rect x="388.68" y="279.32" width="8.14" height="6.68" style="fill: rgb(38, 50, 56); stroke: rgb(38, 50, 56); stroke-linecap: round; stroke-linejoin: round; transform-origin: 392.75px 282.66px;" id="elpxsvemqz9ad" class="animable"></rect><rect x="410.82" y="279.32" width="8.14" height="6.68" style="fill: rgb(38, 50, 56); stroke: rgb(38, 50, 56); stroke-linecap: round; stroke-linejoin: round; transform-origin: 414.89px 282.66px;" id="elaa7il7rk43" class="animable"></rect><rect x="410.82" y="289" width="8.14" height="15.68" style="fill: rgb(38, 50, 56); stroke: rgb(38, 50, 56); stroke-linecap: round; stroke-linejoin: round; transform-origin: 414.89px 296.84px;" id="el0t84wtdr4iu" class="animable"></rect><rect x="388.68" y="289" width="8.14" height="15.68" style="fill: rgb(38, 50, 56); stroke: rgb(38, 50, 56); stroke-linecap: round; stroke-linejoin: round; transform-origin: 392.75px 296.84px;" id="eljxnn64jo93m" class="animable"></rect><rect x="337.82" y="276.5" width="26" height="31" style="fill: rgb(255, 255, 255); stroke: rgb(38, 50, 56); stroke-linecap: round; stroke-linejoin: round; transform-origin: 350.82px 292px;" id="el3xkz2jw9v56" class="animable"></rect><rect x="351.82" y="279.32" width="9" height="6.68" style="fill: rgb(38, 50, 56); stroke: rgb(38, 50, 56); stroke-linecap: round; stroke-linejoin: round; transform-origin: 356.32px 282.66px;" id="elf5yp1ro7yyf" class="animable"></rect><rect x="351.82" y="289" width="9" height="15.68" style="fill: rgb(38, 50, 56); stroke: rgb(38, 50, 56); stroke-linecap: round; stroke-linejoin: round; transform-origin: 356.32px 296.84px;" id="elfxkn7js0p7" class="animable"></rect><rect x="341.18" y="279.32" width="8.14" height="6.68" style="fill: rgb(38, 50, 56); stroke: rgb(38, 50, 56); stroke-linecap: round; stroke-linejoin: round; transform-origin: 345.25px 282.66px;" id="elev4eajy3de" class="animable"></rect><rect x="341.18" y="289" width="8.14" height="15.68" style="fill: rgb(38, 50, 56); stroke: rgb(38, 50, 56); stroke-linecap: round; stroke-linejoin: round; transform-origin: 345.25px 296.84px;" id="el97m2ebs7k1b" class="animable"></rect><rect x="395.07" y="367" width="17.5" height="5" style="fill: rgb(64, 89, 173); stroke: rgb(38, 50, 56); stroke-linecap: round; stroke-linejoin: round; transform-origin: 403.82px 369.5px;" id="ele3h896u5co5" class="animable"></rect><rect x="284.4" y="367" width="17.5" height="5" style="fill: rgb(64, 89, 173); stroke: rgb(38, 50, 56); stroke-linecap: round; stroke-linejoin: round; transform-origin: 293.15px 369.5px;" id="elow1gonbru5" class="animable"></rect></g><g id="freepik--house-1--inject-2" class="animable" style="transform-origin: 145.76px 321.395px;"><rect x="77.95" y="287" width="135.61" height="100" style="fill: rgb(255, 255, 255); stroke: rgb(38, 50, 56); stroke-linecap: round; stroke-linejoin: round; transform-origin: 145.755px 337px;" id="el5had654g41u" class="animable"></rect><polygon points="224.98 289.82 66.53 289.82 78.37 294.13 213.13 294.13 224.98 289.82" style="fill: rgb(64, 89, 173); stroke: rgb(38, 50, 56); stroke-linecap: round; stroke-linejoin: round; transform-origin: 145.755px 291.975px;" id="elvrvnj8qx39" class="animable"></polygon><path d="M225,289.83H66.52l10.83-15.56a3.43,3.43,0,0,1,2.81-1.47H211.34a3.44,3.44,0,0,1,2.82,1.47Z" style="fill: rgb(38, 50, 56); stroke: rgb(38, 50, 56); stroke-linecap: round; stroke-linejoin: round; transform-origin: 145.76px 281.315px;" id="elxnndqf95txk" class="animable"></path><rect x="80.23" y="260.54" width="11.26" height="15.09" style="fill: rgb(255, 255, 255); stroke: rgb(38, 50, 56); stroke-linecap: round; stroke-linejoin: round; transform-origin: 85.86px 268.085px;" id="elwgnmn177zp" class="animable"></rect><rect x="88.53" y="260.54" width="2.96" height="15.09" style="fill: rgb(255, 255, 255); stroke: rgb(38, 50, 56); stroke-linecap: round; stroke-linejoin: round; transform-origin: 90.01px 268.085px;" id="elx5g1vc3w06" class="animable"></rect><rect x="78.37" y="255.79" width="14.98" height="7.76" style="fill: rgb(255, 255, 255); stroke: rgb(38, 50, 56); stroke-linecap: round; stroke-linejoin: round; transform-origin: 85.86px 259.67px;" id="eleo7fz25p4yf" class="animable"></rect><rect x="88.17" y="255.79" width="5.18" height="7.76" style="fill: rgb(255, 255, 255); stroke: rgb(38, 50, 56); stroke-linecap: round; stroke-linejoin: round; transform-origin: 90.76px 259.67px;" id="elf1vtgvragtg" class="animable"></rect><rect x="94.32" y="294.71" width="18.5" height="28.79" style="fill: rgb(255, 255, 255); stroke: rgb(38, 50, 56); stroke-linecap: round; stroke-linejoin: round; transform-origin: 103.57px 309.105px;" id="elx93t8aqoxx" class="animable"></rect><rect x="96.32" y="296.5" width="14.5" height="25.57" style="fill: rgb(38, 50, 56); stroke: rgb(255, 255, 255); stroke-linecap: round; stroke-linejoin: round; transform-origin: 103.57px 309.285px;" id="el0zeyo3b3sw" class="animable"></rect><rect x="96.32" y="296.5" width="14.5" height="14" style="fill: rgb(38, 50, 56); stroke: rgb(255, 255, 255); stroke-linecap: round; stroke-linejoin: round; transform-origin: 103.57px 303.5px;" id="eljqpec74ci2f" class="animable"></rect><rect x="100.32" y="296.5" width="6.5" height="14" style="fill: rgb(38, 50, 56); stroke: rgb(255, 255, 255); stroke-linecap: round; stroke-linejoin: round; transform-origin: 103.57px 303.5px;" id="ele6e6udlijie" class="animable"></rect><rect x="91.32" y="350.21" width="24.5" height="28.79" style="fill: rgb(255, 255, 255); stroke: rgb(38, 50, 56); stroke-linecap: round; stroke-linejoin: round; transform-origin: 103.57px 364.605px;" id="ell5oj9qnzytf" class="animable"></rect><rect x="93.97" y="352" width="19.2" height="25.57" style="fill: rgb(38, 50, 56); stroke: rgb(255, 255, 255); stroke-linecap: round; stroke-linejoin: round; transform-origin: 103.57px 364.785px;" id="elcvo63dk2yoq" class="animable"></rect><rect x="93.97" y="352" width="19.2" height="14" style="fill: rgb(38, 50, 56); stroke: rgb(255, 255, 255); stroke-linecap: round; stroke-linejoin: round; transform-origin: 103.57px 359px;" id="el1k3mk53d4q6" class="animable"></rect><rect x="99.27" y="352" width="8.61" height="14" style="fill: rgb(38, 50, 56); stroke: rgb(255, 255, 255); stroke-linecap: round; stroke-linejoin: round; transform-origin: 103.575px 359px;" id="el6fgou1unbh7" class="animable"></rect><rect x="175.32" y="350.21" width="24.5" height="28.79" style="fill: rgb(255, 255, 255); stroke: rgb(38, 50, 56); stroke-linecap: round; stroke-linejoin: round; transform-origin: 187.57px 364.605px;" id="el7mltt9f7qqs" class="animable"></rect><rect x="177.97" y="352" width="19.2" height="25.57" style="fill: rgb(38, 50, 56); stroke: rgb(255, 255, 255); stroke-linecap: round; stroke-linejoin: round; transform-origin: 187.57px 364.785px;" id="elbdqu71gv9ch" class="animable"></rect><rect x="177.97" y="352" width="19.2" height="14" style="fill: rgb(38, 50, 56); stroke: rgb(255, 255, 255); stroke-linecap: round; stroke-linejoin: round; transform-origin: 187.57px 359px;" id="elon3kutlg96m" class="animable"></rect><rect x="183.27" y="352" width="8.61" height="14" style="fill: rgb(38, 50, 56); stroke: rgb(255, 255, 255); stroke-linecap: round; stroke-linejoin: round; transform-origin: 187.575px 359px;" id="elw2y88v4cb5q" class="animable"></rect><rect x="179.32" y="294.71" width="18.5" height="28.79" style="fill: rgb(255, 255, 255); stroke: rgb(38, 50, 56); stroke-linecap: round; stroke-linejoin: round; transform-origin: 188.57px 309.105px;" id="el5xmtr15o446" class="animable"></rect><rect x="181.32" y="296.5" width="14.5" height="25.57" style="fill: rgb(38, 50, 56); stroke: rgb(255, 255, 255); stroke-linecap: round; stroke-linejoin: round; transform-origin: 188.57px 309.285px;" id="eloh82l2rhxv" class="animable"></rect><rect x="181.32" y="296.5" width="14.5" height="14" style="fill: rgb(38, 50, 56); stroke: rgb(255, 255, 255); stroke-linecap: round; stroke-linejoin: round; transform-origin: 188.57px 303.5px;" id="ely4vedbllqs" class="animable"></rect><rect x="185.32" y="296.5" width="6.5" height="14" style="fill: rgb(38, 50, 56); stroke: rgb(255, 255, 255); stroke-linecap: round; stroke-linejoin: round; transform-origin: 188.57px 303.5px;" id="elqlfmhgbmdvq" class="animable"></rect><rect x="138.33" y="299" width="12.99" height="20.21" style="fill: rgb(255, 255, 255); stroke: rgb(38, 50, 56); stroke-linecap: round; stroke-linejoin: round; transform-origin: 144.825px 309.105px;" id="elbqw1defogcm" class="animable"></rect><rect x="139.73" y="300.26" width="10.17" height="17.52" style="fill: rgb(38, 50, 56); stroke: rgb(255, 255, 255); stroke-linecap: round; stroke-linejoin: round; transform-origin: 144.815px 309.02px;" id="el1684wikzqkt" class="animable"></rect><rect x="139.73" y="300.26" width="10.17" height="9.82" style="fill: rgb(38, 50, 56); stroke: rgb(255, 255, 255); stroke-linecap: round; stroke-linejoin: round; transform-origin: 144.815px 305.17px;" id="elxqvqyupi1t" class="animable"></rect><rect x="142.54" y="300.26" width="4.56" height="9.82" style="fill: rgb(38, 50, 56); stroke: rgb(255, 255, 255); stroke-linecap: round; stroke-linejoin: round; transform-origin: 144.82px 305.17px;" id="el67i3nqmxff2" class="animable"></rect><rect x="128.18" y="342" width="35.14" height="35.5" style="fill: rgb(64, 89, 173); stroke: rgb(38, 50, 56); stroke-linecap: round; stroke-linejoin: round; transform-origin: 145.75px 359.75px;" id="elswjq7jukvz" class="animable"></rect><rect x="132.18" y="347" width="27.14" height="30.5" style="fill: rgb(38, 50, 56); stroke: rgb(38, 50, 56); stroke-linecap: round; stroke-linejoin: round; transform-origin: 145.75px 362.25px;" id="el528qxwbbpjt" class="animable"></rect><rect x="137.18" y="347" width="3.64" height="30.5" style="fill: rgb(255, 255, 255); stroke: rgb(38, 50, 56); stroke-linecap: round; stroke-linejoin: round; transform-origin: 139px 362.25px;" id="elbqyjeenvqt5" class="animable"></rect><rect x="149.18" y="347" width="3.64" height="30.5" style="fill: rgb(255, 255, 255); stroke: rgb(38, 50, 56); stroke-linecap: round; stroke-linejoin: round; transform-origin: 151px 362.25px;" id="elht85ido8b1n" class="animable"></rect><path d="M133.82,340.16H129.6l16.15-14,16.16,14h-4.09v2.33H170L146.33,322a.88.88,0,0,0-1.16,0l-23.66,20.49h12.31Z" style="fill: rgb(64, 89, 173); stroke: rgb(38, 50, 56); stroke-linecap: round; stroke-linejoin: round; transform-origin: 145.755px 332.136px;" id="elmgmb4e02adc" class="animable"></path><rect x="128.18" y="377.5" width="35.31" height="3.11" style="fill: rgb(64, 89, 173); stroke: rgb(38, 50, 56); stroke-linecap: round; stroke-linejoin: round; transform-origin: 145.835px 379.055px;" id="elrj71vwsqpx" class="animable"></rect><rect x="128.18" y="380.52" width="35.31" height="3.11" style="fill: rgb(64, 89, 173); stroke: rgb(38, 50, 56); stroke-linecap: round; stroke-linejoin: round; transform-origin: 145.835px 382.075px;" id="elel4qg2hfl0o" class="animable"></rect><rect x="128.18" y="383.54" width="35.31" height="3.11" style="fill: rgb(64, 89, 173); stroke: rgb(38, 50, 56); stroke-linecap: round; stroke-linejoin: round; transform-origin: 145.835px 385.095px;" id="elgsnwtibp2gq" class="animable"></rect><line x1="132.18" y1="347" x2="128.65" y2="347" style="fill: none; stroke: rgb(38, 50, 56); stroke-linecap: round; stroke-linejoin: round; transform-origin: 130.415px 347px;" id="el13apnrussjm" class="animable"></line><line x1="163.18" y1="347" x2="159.65" y2="347" style="fill: none; stroke: rgb(38, 50, 56); stroke-linecap: round; stroke-linejoin: round; transform-origin: 161.415px 347px;" id="elndn50rae6p" class="animable"></line></g><g id="freepik--Trees--inject-2" class="animable animator-active" style="transform-origin: 250.813px 344.61px;"><path d="M251.32,368.35s9.41.93,14.18,6.76a18.21,18.21,0,0,1,14.09-6.62,18.29,18.29,0,1,0-28.28-.13Z" style="fill: rgb(64, 89, 173); transform-origin: 265.503px 356.822px;" id="el5qc4prqbzzb" class="animable"></path><g id="el9nmc7u6jeql"><path d="M251.32,368.35s9.41.93,14.18,6.76a18.21,18.21,0,0,1,14.09-6.62,18.29,18.29,0,1,0-28.28-.13Z" style="fill: rgb(255, 255, 255); opacity: 0.5; transform-origin: 265.503px 356.822px;" class="animable"></path></g><polygon points="265.19 339.81 264.87 387 266.46 387 265.19 339.81" style="fill: rgb(38, 50, 56); transform-origin: 265.665px 363.405px;" id="el9n2enmwn2w" class="animable"></polygon><path d="M265.66,373.34s3.18-5.72,8.9-7.47c0,0-6,1.43-9.05,6.35Z" style="fill: rgb(38, 50, 56); transform-origin: 270.035px 369.605px;" id="elvsfi81rnhz" class="animable"></path><path d="M265.66,357.13s3.18-5.72,8.9-7.47c0,0-6,1.43-9.05,6.36Z" style="fill: rgb(38, 50, 56); transform-origin: 270.035px 353.395px;" id="elkykfev66t5b" class="animable"></path><path d="M265.66,365.23s3.18-5.72,8.9-7.46c0,0-6,1.43-9.05,6.35Z" style="fill: rgb(38, 50, 56); transform-origin: 270.035px 361.5px;" id="el78q6rl1fenp" class="animable"></path><path d="M265.19,361.26s-3.06-5.72-8.58-7.47c0,0,5.82,1.43,8.74,6.36Z" style="fill: rgb(38, 50, 56); transform-origin: 260.98px 357.525px;" id="elgsmsrunthut" class="animable"></path><path d="M265.19,369.2s-3.06-5.71-8.58-7.46c0,0,5.82,1.43,8.74,6.35Z" style="fill: rgb(38, 50, 56); transform-origin: 260.98px 365.47px;" id="el69cfobb3vq5" class="animable"></path><path d="M425.62,368.35s9.41.93,14.19,6.76a18.21,18.21,0,0,1,14.09-6.62,18.29,18.29,0,1,0-28.28-.13Z" style="fill: rgb(64, 89, 173); transform-origin: 439.813px 356.822px;" id="elzgv0k0few4" class="animable"></path><g id="elx56g5ebp3yg"><path d="M425.62,368.35s9.41.93,14.19,6.76a18.21,18.21,0,0,1,14.09-6.62,18.29,18.29,0,1,0-28.28-.13Z" style="fill: rgb(255, 255, 255); opacity: 0.5; transform-origin: 439.813px 356.822px;" class="animable"></path></g><polygon points="439.49 339.81 439.18 387 440.76 387 439.49 339.81" style="fill: rgb(38, 50, 56); transform-origin: 439.97px 363.405px;" id="elppld3bl6f3" class="animable"></polygon><path d="M440,373.34s3.18-5.72,8.9-7.47c0,0-6,1.43-9.06,6.35Z" style="fill: rgb(38, 50, 56); transform-origin: 444.37px 369.605px;" id="elwe5hqt0v08p" class="animable"></path><path d="M440,357.13s3.18-5.72,8.9-7.47c0,0-6,1.43-9.06,6.36Z" style="fill: rgb(38, 50, 56); transform-origin: 444.37px 353.395px;" id="eljvszvwykbvk" class="animable"></path><path d="M440,365.23s3.18-5.72,8.9-7.46c0,0-6,1.43-9.06,6.35Z" style="fill: rgb(38, 50, 56); transform-origin: 444.37px 361.5px;" id="el6x528v5ybcb" class="animable"></path><path d="M439.5,361.26s-3.07-5.72-8.59-7.47c0,0,5.83,1.43,8.74,6.36Z" style="fill: rgb(38, 50, 56); transform-origin: 435.28px 357.525px;" id="el5ph6o25hnmd" class="animable"></path><path d="M439.5,369.2s-3.07-5.71-8.59-7.46c0,0,5.83,1.43,8.74,6.35Z" style="fill: rgb(38, 50, 56); transform-origin: 435.28px 365.47px;" id="elczf5p3ovcyd" class="animable"></path><path d="M47.62,368.35s9.41.93,14.19,6.76a18.21,18.21,0,0,1,14.09-6.62,18.29,18.29,0,1,0-28.28-.13Z" style="fill: rgb(64, 89, 173); transform-origin: 61.8133px 356.822px;" id="elzg8t8a9rihs" class="animable"></path><g id="elrb7knvveh6a"><path d="M47.62,368.35s9.41.93,14.19,6.76a18.21,18.21,0,0,1,14.09-6.62,18.29,18.29,0,1,0-28.28-.13Z" style="fill: rgb(255, 255, 255); opacity: 0.5; transform-origin: 61.8133px 356.822px;" class="animable"></path></g><polygon points="61.49 339.81 61.18 387 62.77 387 61.49 339.81" style="fill: rgb(38, 50, 56); transform-origin: 61.975px 363.405px;" id="elx724eyuojro" class="animable"></polygon><path d="M62,373.34s3.18-5.72,8.9-7.47c0,0-6,1.43-9.06,6.35Z" style="fill: rgb(38, 50, 56); transform-origin: 66.37px 369.605px;" id="el4f2cjr4lmyi" class="animable"></path><path d="M62,357.13s3.18-5.72,8.9-7.47c0,0-6,1.43-9.06,6.36Z" style="fill: rgb(38, 50, 56); transform-origin: 66.37px 353.395px;" id="elkzgwrrwqfte" class="animable"></path><path d="M62,365.23s3.18-5.72,8.9-7.46c0,0-6,1.43-9.06,6.35Z" style="fill: rgb(38, 50, 56); transform-origin: 66.37px 361.5px;" id="el583nw2g19ri" class="animable"></path><path d="M61.5,361.26s-3.07-5.72-8.59-7.47c0,0,5.83,1.43,8.74,6.36Z" style="fill: rgb(38, 50, 56); transform-origin: 57.28px 357.525px;" id="elhq9hq8y4cb" class="animable"></path><path d="M61.5,369.2s-3.07-5.71-8.59-7.46c0,0,5.83,1.43,8.74,6.35Z" style="fill: rgb(38, 50, 56); transform-origin: 57.28px 365.47px;" id="el2rpklti9agr" class="animable"></path><path d="M200.75,354.42s16.44,1.63,24.77,11.82c0,0,8.8-11.8,24.62-11.56a32,32,0,1,0-49.4-.23Z" style="fill: rgb(64, 89, 173); transform-origin: 225.535px 334.23px;" id="el0g5iapt2g2eo" class="animable"></path><g id="elvni416hu96b"><path d="M200.75,354.42s16.44,1.63,24.77,11.82c0,0,8.8-11.8,24.62-11.56a32,32,0,1,0-49.4-.23Z" style="fill: rgb(255, 255, 255); opacity: 0.3; transform-origin: 225.535px 334.23px;" class="animable"></path></g><polygon points="224.98 304.59 224.42 387 227.2 387 224.98 304.59" style="fill: rgb(38, 50, 56); transform-origin: 225.81px 345.795px;" id="el9lydmedzu9e" class="animable"></polygon><path d="M225.81,363.14s5.55-10,15.54-13.05c0,0-10.55,2.5-15.82,11.1Z" style="fill: rgb(38, 50, 56); transform-origin: 233.44px 356.615px;" id="eld1zdkyc5ds" class="animable"></path><path d="M225.81,334.83s5.55-10,15.54-13c0,0-10.55,2.5-15.82,11.1Z" style="fill: rgb(38, 50, 56); transform-origin: 233.44px 328.33px;" id="elplaytz6x1de" class="animable"></path><path d="M225.81,349s5.55-10,15.54-13c0,0-10.55,2.5-15.82,11.1Z" style="fill: rgb(38, 50, 56); transform-origin: 233.44px 342.5px;" id="elxhc02q3u5rr" class="animable"></path><path d="M225,342.05s-5.36-10-15-13c0,0,10.18,2.49,15.26,11.09Z" style="fill: rgb(38, 50, 56); transform-origin: 217.63px 335.55px;" id="elgsw910nlvb" class="animable"></path><path d="M225,355.92s-5.36-10-15-13c0,0,10.18,2.5,15.26,11.1Z" style="fill: rgb(38, 50, 56); transform-origin: 217.63px 349.42px;" id="elfmjb2fxu7d8" class="animable"></path></g><g id="freepik--Floor--inject-2" class="animable animator-hidden" style="transform-origin: 249.315px 388.33px;"><rect x="45.65" y="386.33" width="407.33" height="4" style="fill: rgb(38, 50, 56); stroke: rgb(38, 50, 56); stroke-linecap: round; stroke-linejoin: round; transform-origin: 249.315px 388.33px;" id="elmltuqp4lpnd" class="animable"></rect></g><g id="freepik--Clouds--inject-2" class="animable" style="transform-origin: 183.625px 175.54px;"><path d="M238.91,240.19c-3.3-1.81-4.8-.3-6-1.81s3.31-5.41-5.71-9.31c0,0-.6-8.42-12.92-8.72s-9,8.42-12.32,10.52-4.21-1.2-7.51.9-1.81,6.31-4.51,6.91-6.31-2.7-9.62-.6S177,242,175.5,242s-4.5-1.2-6.31,0-3.9,2.7-3.9,2.7h76S242.22,242,238.91,240.19Z" style="fill: rgb(255, 255, 255); transform-origin: 203.35px 232.521px;" id="elvlm1ptswgtm" class="animable"></path><path d="M207.1,228.46c-2.4-1.32-3.5-.22-4.37-1.32s2.4-3.94-4.16-6.78c0,0-.44-6.13-9.42-6.35s-6.56,6.13-9,7.66-3.07-.87-5.48.66-1.31,4.6-3.28,5-4.6-2-7-.43-2.4,2.84-3.5,2.84-3.28-.87-4.6,0-2.84,2-2.84,2h55.39S209.51,229.77,207.1,228.46Z" style="fill: rgb(255, 255, 255); transform-origin: 181.188px 222.872px;" id="eldxfedn2pvmf" class="animable"></path><path d="M226.1,133.4c-4.5-2.45-6.55-.41-8.18-2.45s4.5-7.37-7.78-12.69c0,0-.82-11.46-17.6-11.87s-12.27,11.46-16.78,14.33-5.72-1.64-10.23,1.22-2.45,8.6-6.13,9.42-8.6-3.69-13.1-.82-4.5,5.32-6.55,5.32-6.14-1.64-8.59,0-5.32,3.68-5.32,3.68H229.37S230.6,135.86,226.1,133.4Z" style="fill: rgb(64, 89, 173); transform-origin: 177.682px 122.96px;" id="elk0z1of0p4oe" class="animable"></path><g id="eli5ole415b1"><path d="M226.1,133.4c-4.5-2.45-6.55-.41-8.18-2.45s4.5-7.37-7.78-12.69c0,0-.82-11.46-17.6-11.87s-12.27,11.46-16.78,14.33-5.72-1.64-10.23,1.22-2.45,8.6-6.13,9.42-8.6-3.69-13.1-.82-4.5,5.32-6.55,5.32-6.14-1.64-8.59,0-5.32,3.68-5.32,3.68H229.37S230.6,135.86,226.1,133.4Z" style="fill: rgb(255, 255, 255); opacity: 0.8; transform-origin: 177.682px 122.96px;" class="animable"></path></g></g><defs>     <filter id="active" height="200%">         <feMorphology in="SourceAlpha" result="DILATED" operator="dilate" radius="2"></feMorphology>                <feFlood flood-color="#32DFEC" flood-opacity="1" result="PINK"></feFlood>        <feComposite in="PINK" in2="DILATED" operator="in" result="OUTLINE"></feComposite>        <feMerge>            <feMergeNode in="OUTLINE"></feMergeNode>            <feMergeNode in="SourceGraphic"></feMergeNode>        </feMerge>    </filter>    <filter id="hover" height="200%">        <feMorphology in="SourceAlpha" result="DILATED" operator="dilate" radius="2"></feMorphology>                <feFlood flood-color="#ff0000" flood-opacity="0.5" result="PINK"></feFlood>        <feComposite in="PINK" in2="DILATED" operator="in" result="OUTLINE"></feComposite>        <feMerge>            <feMergeNode in="OUTLINE"></feMergeNode>            <feMergeNode in="SourceGraphic"></feMergeNode>        </feMerge>            <feColorMatrix type="matrix" values="0   0   0   0   0                0   1   0   0   0                0   0   0   0   0                0   0   0   1   0 "></feColorMatrix>    </filter></defs></svg>